<svg xmlns="http://www.w3.org/2000/svg" viewBox="0 0 666.71 338.29"><defs><style>.cls-1{fill:#3ab24f;}.cls-2{fill:#fff;}</style></defs><g id="Calque_2" data-name="Calque 2"><g id="Calque_1-2" data-name="Calque 1"><path class="cls-1" d="M219.91,111.39a99.28,99.28,0,0,1,5.44-38.72C239.26,34.4,266.14,10.63,306,2A94.8,94.8,0,0,1,325.64.11C360-.07,394.32,0,428.66,0c3.27,0,3.27,0,3.27,3.2,0,27.88-.07,55.75.06,83.63,0,6,.93,12.07,1.18,18.12a71.42,71.42,0,0,1-.37,10.44c-1.12,10.34-2.82,20.61-6.9,30.24-15.51,36.59-42.73,59-81.9,66.16-18.35,3.37-36.44,1.49-54-4.85-.56-.21-1.12-.45-2.29-.92,1-.08,1.5-.16,1.94-.14,12.77.52,25.37-.41,37.53-4.63,20.06-6.94,33-20.92,39.88-40.77,1-2.86,1.76-5.8,2.61-8.72a9,9,0,0,0,0-1.49c-5.29,0-10.52.07-15.74,0q-21.3-.33-42.59-.81a2.38,2.38,0,0,0-2.69,1.7c-2.84,6.54-8.22,9.38-15.28,8.18-3.74-.64-6.24-3-8-6.16-2.69-4.92-3.44-10.32-3.69-15.81,0-.47.81-1.15,1.4-1.44a4.43,4.43,0,0,1,1.79,0H369c3,0,2.92,0,3-3,.46-12.34,0-24.61-3.18-36.62-4.19-15.89-11.51-30-24.19-40.87-10.13-8.69-22-13.55-35.19-15.25-15-1.93-29.56-.79-43.48,5.25-17.66,7.65-30,20.83-38.26,38A87.47,87.47,0,0,0,219.91,111.39Z"/><ellipse class="cls-1" cx="319.78" cy="109.27" rx="99.98" ry="102.53"/><rect class="cls-2" x="291.52" y="56.72" width="83.33" height="19.55" rx="8.32" transform="translate(231.95 -257.83) rotate(61.38)"/><rect class="cls-2" x="278.61" y="96.54" width="61.5" height="19.55" rx="8.32" transform="translate(80.81 -127.72) rotate(26.71)"/><rect class="cls-2" x="310.11" y="167.31" width="31.05" height="19.55" rx="8.32" transform="translate(-38.03 248.82) rotate(-39.7)"/><rect class="cls-2" x="288.19" y="136.31" width="41.99" height="19.55" rx="8.32" transform="translate(-3.16 6.89) rotate(-1.27)"/><path class="cls-1" d="M74.71,249c19.09-17.76,48.44-13.79,63,6.87.28-.37.54-.7.78-1a34.39,34.39,0,0,1,25.34-15.3c9.22-1.06,18.09.27,26.22,5.11a1.5,1.5,0,0,0,1.26.11c3.32-2.31,7.06-2.76,11-2.8,7.35-.08,14.71-.25,22.06-.38s14.79-.36,22.18-.38a21.19,21.19,0,0,1,6,1,12.09,12.09,0,0,1,7.2,6c.17.31.37.59.62,1,9.51-8.36,20.36-12.57,33.07-11.09s22.3,7.9,30,17.85c.23-.28.44-.51.62-.76a34.53,34.53,0,0,1,25.43-15.57,42,42,0,0,1,23.6,3.62,24.93,24.93,0,0,1,12,11.91,40.06,40.06,0,0,1,3.38,23,13.06,13.06,0,0,1-3.1,6.5,13.23,13.23,0,0,1,4.32,8,80.79,80.79,0,0,1,.65,11,34.91,34.91,0,0,1-6.81,20.11c-5.24,7.29-12.42,11.59-21.08,13.54C351,339.74,340.38,338,331,330.7a34.94,34.94,0,0,1-8.77-9.6c-.12-.2-.26-.39-.47-.7-.92,1-1.76,2-2.66,3-6.63,7-14.5,11.94-24,13.54-13.27,2.22-25.25-1-35.35-10.1-8.67-7.82-13.61-17.68-15.61-29.18a14.58,14.58,0,0,0-.18,1.48q-.18,11.56-.33,23.14a14.43,14.43,0,0,1-12.43,14.51,57.86,57.86,0,0,1-19.56,0,13.77,13.77,0,0,1-11.15-12.89c-.08-1.11-.2-2.22-.33-3.71-7.34,12.36-18.43,17.66-32.06,18-14,.38-24.34-6.4-32-17.65-1.71,1.76-3.34,3.62-5.16,5.28-6.56,6-14.11,10.21-23,11.31-13.44,1.68-25.33-2-35.15-11.54A47.93,47.93,0,0,1,58.8,298.85a4,4,0,0,0-.49-1.42c0,.43-.07.85-.07,1.28-.12,7.8-.22,15.59-.35,23.39-.14,8.12-5.67,14.25-13.84,14.85a139,139,0,0,1-15.68.24,14.12,14.12,0,0,1-13.69-14q-.48-12.76-.84-25.52c-.13-4.12-.19-8.24-.24-12.35,0-.84-.18-1.24-1.15-1.39A14.14,14.14,0,0,1,.27,270.15c-.15-5-.35-10-.24-15a13.16,13.16,0,0,1,11.52-12.78,101,101,0,0,1,12.32-.58q16.36-.34,32.73-.56a51.63,51.63,0,0,1,8.35.39A12.37,12.37,0,0,1,74,248.05c.16.28.33.55.49.82C74.54,248.9,74.59,248.91,74.71,249Zm-5,39.42c.21,2,.42,4.71.82,7.43a35.64,35.64,0,0,0,11.35,21.85c7.59,6.9,16.6,9.33,26.53,7.11,8.38-1.86,14.9-6.87,19.64-14a42.29,42.29,0,0,0,6.71-30.95,36.55,36.55,0,0,0-11.79-22.43c-10-9-24.91-10.54-36.33-2.46C75.33,263,70.16,274.05,69.67,288.41Zm251.38-2.34c-.16-1.6-.27-4-.64-6.29-1.47-9.25-5.39-17.24-12.8-23.15-9.14-7.29-19.33-9.15-30.18-4.46a35.29,35.29,0,0,0-18,17.85c-4.07,8.55-4.78,17.55-3.11,26.79a36.26,36.26,0,0,0,10.91,20.59,28.89,28.89,0,0,0,24.58,7.87c7.57-1,13.79-4.91,18.85-10.54C317.75,306.82,320.78,297.33,321.05,286.07Zm34.56-34.8c-7.81,0-13.13,1.8-17.8,6.09A29.78,29.78,0,0,0,330,269.68c-4.53,12.89-4.36,25.84-.32,38.82A25,25,0,0,0,339,321.75c6.12,4.44,12.9,5.37,20.16,3.85,9.25-2,15.5-7.33,18.17-16.43a40.46,40.46,0,0,0,1.09-8.75,28.59,28.59,0,0,0-.41-5.12c-.2-1.66-.76-2.14-2.4-2.23a11.63,11.63,0,0,0-1.32,0l-12,.5c-1.89.08-2.52.74-2.67,2.63a10.82,10.82,0,0,1-1.85,5.49c-2.94,4.19-8,4-10.56-.42a11.36,11.36,0,0,1-1.33-3.18,46.44,46.44,0,0,1-1.21-16.39,15.07,15.07,0,0,1,4.56-9.53c3.64-3.34,8.44-1.95,9.67,2.82a4.34,4.34,0,0,0,.52,1.57,3.61,3.61,0,0,0,1.64,1.31,8.69,8.69,0,0,0,2.6,0c3.55-.16,7.1-.33,10.65-.54,1.66-.09,2.41-.79,2.47-2.34a35.93,35.93,0,0,0-1-10.58c-1.55-5.91-5.08-9.89-11-11.69A30.34,30.34,0,0,0,355.61,251.27ZM141,289.75a58.61,58.61,0,0,0,2.46,17.32c1.7,5.84,4.62,10.82,9.61,14.5,6.36,4.68,13.37,5.61,20.92,3.91,6.5-1.46,11.68-4.77,15.21-10.54a24,24,0,0,0,3.5-12.51c0-2.51-.22-5-.44-7.52a1.88,1.88,0,0,0-2.11-1.83c-.48,0-1-.05-1.44,0q-5.92.22-11.85.49c-2.18.09-2.6.7-3,2.89a14,14,0,0,1-1.62,4.93c-2.81,4.62-8.21,4.42-10.83-.33a12.85,12.85,0,0,1-1.29-3.33A47.5,47.5,0,0,1,159,282.26c.42-3.82,1.65-7.32,4.55-10,3.67-3.44,8.44-2.09,9.73,2.76.13.5.3,1,.47,1.48a1.9,1.9,0,0,0,1.83,1.47c.83,0,1.66,0,2.49,0,3.51-.17,7-.34,10.53-.55,1.73-.1,2.45-.69,2.52-2.12a33.51,33.51,0,0,0-1.19-11.74,15.12,15.12,0,0,0-10-10.49,33.76,33.76,0,0,0-12.85-1.67,23,23,0,0,0-14.35,5.52,29.57,29.57,0,0,0-7.77,11.1A53.14,53.14,0,0,0,141,289.75Zm69.91-17.61c.14,3.89.32,7.46.4,11,.19,8.59.3,17.18.5,25.77.11,4.51.33,9,.54,13.52.09,1.82.64,2.44,2.42,2.68a29.07,29.07,0,0,0,4.17.23c3.08-.05,6.15-.1,9.22-.29,2.61-.16,3.45-1.21,3.49-3.86.05-3.19.17-6.39.2-9.58q.16-18.76.28-37.53v-1.76h12.76c1.12,0,2.23.08,3.35.06a1.33,1.33,0,0,0,1.46-1.4c0-1.44.13-2.87.12-4.31q-.06-5.39-.18-10.79c0-2.18-.5-2.69-2.58-2.68-4.52,0-9,.12-13.54.18-5.6.08-11.19.15-16.78.24q-8.16.14-16.3.31c-2.08,0-2.78.78-2.75,2.86.06,4,.16,7.91.23,11.87.05,2.69.76,3.42,3.43,3.43Zm-164.58.47c1.69-.08,3.2-.22,4.71-.22,3.47,0,6.95.07,10.43.1,2.21,0,2.65-.35,2.63-2.54,0-4.83-.12-9.67-.22-14.5,0-1.68-.57-2.21-2.29-2.2-4.6,0-9.19.12-13.79.18-6.75.1-13.5.18-20.26.29q-6.41.1-12.82.26c-2.08.05-2.81.81-2.78,2.86,0,2.4.14,4.79.19,7.19,0,1.64,0,3.28.06,4.91.06,2.38.86,3.17,3.2,3.19,1.56,0,3.12,0,4.68,0s3.32.14,5,.21c.1.93.26,1.76.28,2.59q.24,8.93.44,17.85c.16,7.27.29,14.54.5,21.81.08,2.87.3,5.74.5,8.6a2,2,0,0,0,1.94,1.92,45.47,45.47,0,0,0,4.66.25c3.39-.09,6.78-.23,10.15-.52,1.58-.14,2.3-1.21,2.34-2.83.08-2.84.16-5.67.2-8.51.09-7.39.19-14.79.24-22.18C46.36,285.14,46.32,279,46.32,272.61Z"/><path class="cls-1" d="M433.51,255.41c1.36-1.56,2.56-3.16,4-4.53a14.82,14.82,0,0,1,9.63-4c3.35-.22,6.69-.44,10-.69,3.93-.29,7.66.25,11,2.78.37-.46.69-.85,1-1.26,2.66-3.5,5.22-7.08,8-10.49,5.16-6.36,12.82-7.28,19.33-2.34a49.44,49.44,0,0,1,5.15,4.67,13,13,0,0,1,3.82,7.56,7.35,7.35,0,0,0,.26.9c3.43-.18,6.85-.41,10.28-.53,10.56-.39,20.41,1.84,28.94,8.38a63.89,63.89,0,0,1,5.87,5.81,11,11,0,0,1,.87-1.22c6-6.38,13-10.89,21.75-12.46a32.72,32.72,0,0,1,14.27.45,51.6,51.6,0,0,1,9,3.32,35.6,35.6,0,0,1,10.9,8.51l.83.9c1.33-1.45,2.54-2.93,3.92-4.24a31,31,0,0,1,19.13-8.41,39,39,0,0,1,16.74,2.05c8.95,3.21,14.13,9.71,16.22,18.8a32.6,32.6,0,0,1,.51,14.14,30.46,30.46,0,0,1-1.41,3.79c-.12.36-.22.91,0,1.16a16.59,16.59,0,0,1,3,9c.41,6,.24,12-2.16,17.66-4.61,10.9-12.89,17.23-24.45,19.29-9.33,1.66-18,0-25.6-5.85a72.65,72.65,0,0,1-6.21-6c-.31-.3-.56-.65-1-1.22-.79.88-1.45,1.73-2.22,2.46a38.25,38.25,0,0,1-20.22,10.5,32.05,32.05,0,0,1-14.25-.62,55.57,55.57,0,0,1-9.33-3.53,33.63,33.63,0,0,1-10.57-8.53c-.33-.39-.67-.77-.89-1-2.79,2.26-5.4,4.63-8.27,6.65A50.14,50.14,0,0,1,517.7,336c-4,.45-8.11.6-12.18.72a12.94,12.94,0,0,1-6.16-1.75,5.71,5.71,0,0,0-2.46-.62q-9.48-.06-19,0c-3,0-6,.18-9,.22a13.59,13.59,0,0,1-8.58-2.86,3.33,3.33,0,0,0-2-.46c-3.71.1-7.43.36-11.14.39-5.53.05-9.82-2.27-12.52-7.16-.63-1.13-1.5-.72-2.27-.64-.35,0-.81.66-.92,1.09-1.62,6.3-6.46,10.52-12.91,10.8-4.86.21-9.75.21-14.61,0A13.1,13.1,0,0,1,391.7,323.7c-.13-1.55-.2-3.11-.2-4.67q0-28.54,0-57.11c0-7.64,4.52-13.1,12-14.45a10.24,10.24,0,0,1,1.91-.14c5.2.07,10.4.11,15.59.24a13.53,13.53,0,0,1,12.33,7.54C433.36,255.21,433.43,255.3,433.51,255.41Zm-12.86,35.47.4,0c.26.58.5,1.17.77,1.73,3,6,5.9,12,8.9,18,.89,1.76,1.9,1.75,3,.06.61-1,1.16-2,1.68-3q4.44-8.82,8.86-17.65a8.94,8.94,0,0,1,.51-.84l.38.07c0,1.71,0,3.42,0,5.13q-.11,10.79-.22,21.58a11.09,11.09,0,0,0,.17,1.9c.3,1.68.52,1.88,2.18,1.84,3.6-.08,7.19-.2,10.79-.32.66,0,1.32-.17,2-.26,0-.37.06-.64.06-.92.15-8.55.26-17.1.45-25.65.13-6.11.37-12.22.56-18.33.15-4.55.36-9.1.44-13.65,0-1.91-.85-2.56-2.74-2.43-3.3.23-6.61.56-9.91.63a5.14,5.14,0,0,0-5,3.26q-5.43,11.59-10.85,23.2c-.09.2-.21.38-.38.7-.24-.46-.43-.76-.56-1.08q-4.61-11.61-9.19-23.24c-.68-1.73-1-2.05-2.88-2.07-.92,0-1.84,0-2.76,0-3.75-.06-7.51-.15-11.26-.19-2,0-2.76.9-2.58,2.86.07.8.12,1.6.12,2.39q0,28.56,0,57.11c0,1.82.44,2.27,2.25,2.28,3.67,0,7.34,0,11,0,2.52,0,3.29-1,3.07-3.55-.2-2.34-.31-4.7-.28-7.05,0-3.32.21-6.63.36-9.94C420.2,299.22,420.43,295.05,420.65,290.88Zm83.82,13.06h-.08v1.56c0,5.47,0,10.95,0,16.43,0,2.4.6,3,2.9,2.92s4.54-.25,6.8-.44A42.5,42.5,0,0,0,529,320.53c6.71-3.21,12.47-7.61,15.85-14.4,4.44-8.89,4.55-18.15,1.31-27.45a30.71,30.71,0,0,0-8.15-13c-4.64-4.17-10.49-5.8-16.53-6.13-5.08-.27-10.21.21-15.31.45-1.84.08-2.28.75-2.14,2.57s.31,3.42.33,5.14q.11,9.22.13,18.45C504.49,292.1,504.47,298,504.47,303.94Zm130.77-43.88-.06.34a19.49,19.49,0,0,0-14.13,4.85,24.15,24.15,0,0,0-6.46,9.68c-3.88,10.12-4,20.43-1.29,30.83,1,3.89,2.45,7.6,5.33,10.58,5.32,5.5,11.69,7.53,19.27,6.19,13.54-2.39,18.48-14,16.44-25.73a1.69,1.69,0,0,0-1.91-1.57c-3.75.1-7.51.17-11.26.33-1.46.07-1.9.79-2.16,2.23a14.26,14.26,0,0,1-1.22,4.08,5,5,0,0,1-4.31,3c-2.56.11-4.15-1.38-5.08-3.5a20.43,20.43,0,0,1-1.33-4.81,32.63,32.63,0,0,1-.15-12.38,11.87,11.87,0,0,1,3.44-6.31c3-2.82,6.86-1.79,8,2.16a4.91,4.91,0,0,0,.56,1.56c.35.45.95,1,1.43,1,3.75-.09,7.5-.27,11.24-.49a1.68,1.68,0,0,0,1.73-1.9,63.89,63.89,0,0,0-.58-8c-1-5.42-4.09-9.25-9.59-10.67C640.58,260.9,637.89,260.55,635.24,260.06Zm-168.57,2.11v1.48q.12,12.78.24,25.55T467.2,315c0,1.91,0,3.84.13,5.75.15,1.66.6,2,2.25,2s3.43-.17,5.15-.2q8.58-.12,17.15-.2c1.72,0,3.44,0,5.15-.05s1.94-.44,2-2.06q0-6.06,0-12.12c0-1.87-.52-2.38-2.4-2.22-2.83.23-5.64.57-8.46.84-1.61.15-3.23.25-4.89.38v-9.74l8.9-.28a24.74,24.74,0,0,0,3.23-.1c.53-.09,1.37-.64,1.39-1,.12-2.66.06-5.32.06-8.14H483c0-3.75,0-7.34,0-10.92,0-.82.52-.94,1.21-.92,4,.14,8.06.24,12.09.4,1.5.06,2.34-.42,2.41-1.69.22-4.15.37-8.3.57-12.45.05-1.08-.48-1.54-1.5-1.57-.4,0-.8,0-1.2,0q-10.89.51-21.79,1C472.15,261.83,469.48,262,466.67,262.17Zm124.22.06c-5.91,20-11.75,39.87-17.59,59.7a22.29,22.29,0,0,0,9.78.45,27.23,27.23,0,0,0,15.85-9.85c5.91-7.36,8.2-15.89,7.5-25.21a31.73,31.73,0,0,0-6.94-18.06A27,27,0,0,0,590.89,262.23Zm-6.25-2.08a21.3,21.3,0,0,0-10.68,0c-7.76,2.16-13.44,7.06-17.48,13.84a33.93,33.93,0,0,0-4.37,21.1c.72,7.51,3.25,14.2,8.47,19.75a23.68,23.68,0,0,0,6.51,4.91C573,299.82,578.79,280,584.64,260.15ZM476,258.58c1.34,1.71,2.17,1.89,3.76.87,3.66-2.36,7.36-4.67,10.95-7.12a11.43,11.43,0,0,0,2.56-2.8,1.52,1.52,0,0,0-.15-1.47c-1.31-1.34-2.72-2.59-4.14-3.81a1.44,1.44,0,0,0-2.3.26C483.11,249.18,479.57,253.86,476,258.58Z"/><path class="cls-2" d="M69.67,288.41C70.16,274.05,75.33,263,86.6,255c11.42-8.08,26.3-6.56,36.33,2.46a36.55,36.55,0,0,1,11.79,22.43A42.29,42.29,0,0,1,128,310.83c-4.74,7.1-11.26,12.11-19.64,14-9.93,2.22-18.94-.21-26.53-7.11a35.64,35.64,0,0,1-11.35-21.85C70.09,293.12,69.88,290.37,69.67,288.41Zm47.17-.4c-.13-1.24-.25-3-.53-4.81-.74-4.59-2.16-8.9-5.38-12.44-4.15-4.58-9.82-5.06-14-1a16.71,16.71,0,0,0-3,4.14,26.59,26.59,0,0,0-2.25,18.81c1.08,4.81,2.88,9.3,6.64,12.75s8.5,3.34,12-.19C114.88,300.68,116.65,294.93,116.84,288Z"/><path class="cls-2" d="M321.05,286.07c-.27,11.26-3.3,20.75-10.41,28.66-5.06,5.63-11.28,9.54-18.85,10.54a28.89,28.89,0,0,1-24.58-7.87,36.26,36.26,0,0,1-10.91-20.59c-1.67-9.24-1-18.24,3.11-26.79a35.29,35.29,0,0,1,18-17.85c10.85-4.69,21-2.83,30.18,4.46,7.41,5.91,11.33,13.9,12.8,23.15C320.78,282.1,320.89,284.47,321.05,286.07ZM289,267a16.05,16.05,0,0,0-1.7.21c-3.66.88-6,3.35-7.67,6.55a27.15,27.15,0,0,0-2,20.32c1.2,4.36,3,8.43,6.44,11.55s8.45,3.25,11.73-.18a25.87,25.87,0,0,0,4.1-5.7c2.8-5.33,3.07-11.06,2-16.9-.67-3.84-1.76-7.55-4.2-10.69C295.56,269.28,292.91,267.15,289,267Z"/><path class="cls-2" d="M355.61,251.27a30.34,30.34,0,0,1,9.25,1.47c5.93,1.8,9.46,5.78,11,11.69a35.93,35.93,0,0,1,1,10.58c-.06,1.55-.81,2.25-2.47,2.34-3.55.21-7.1.38-10.65.54a8.69,8.69,0,0,1-2.6,0,3.61,3.61,0,0,1-1.64-1.31A4.34,4.34,0,0,1,359,275c-1.23-4.77-6-6.16-9.67-2.82a15.07,15.07,0,0,0-4.56,9.53,46.44,46.44,0,0,0,1.21,16.39,11.36,11.36,0,0,0,1.33,3.18c2.58,4.43,7.62,4.61,10.56.42a10.82,10.82,0,0,0,1.85-5.49c.15-1.89.78-2.55,2.67-2.63l12-.5a11.63,11.63,0,0,1,1.32,0c1.64.09,2.2.57,2.4,2.23a28.59,28.59,0,0,1,.41,5.12,40.46,40.46,0,0,1-1.09,8.75c-2.67,9.1-8.92,14.48-18.17,16.43-7.26,1.52-14,.59-20.16-3.85a25,25,0,0,1-9.39-13.25c-4-13-4.21-25.93.32-38.82a29.78,29.78,0,0,1,7.86-12.32C342.48,253.07,347.8,251.26,355.61,251.27Z"/><path class="cls-2" d="M141,289.75a53.14,53.14,0,0,1,3.94-21.81,29.57,29.57,0,0,1,7.77-11.1,23,23,0,0,1,14.35-5.52A33.76,33.76,0,0,1,179.9,253a15.12,15.12,0,0,1,10,10.49,33.51,33.51,0,0,1,1.19,11.74c-.07,1.43-.79,2-2.52,2.12-3.51.21-7,.38-10.53.55-.83,0-1.66.05-2.49,0a1.9,1.9,0,0,1-1.83-1.47c-.17-.49-.34-1-.47-1.48-1.29-4.85-6.06-6.2-9.73-2.76-2.9,2.72-4.13,6.22-4.55,10a47.5,47.5,0,0,0,1.19,15.44,12.85,12.85,0,0,0,1.29,3.33c2.62,4.75,8,5,10.83.33a14,14,0,0,0,1.62-4.93c.37-2.19.79-2.8,3-2.89q5.93-.26,11.85-.49c.48,0,1,0,1.44,0a1.88,1.88,0,0,1,2.11,1.83c.22,2.5.47,5,.44,7.52a24,24,0,0,1-3.5,12.51c-3.53,5.77-8.71,9.08-15.21,10.54-7.55,1.7-14.56.77-20.92-3.91-5-3.68-7.91-8.66-9.61-14.5A58.61,58.61,0,0,1,141,289.75Z"/><path class="cls-2" d="M210.9,272.14h-9.56c-2.67,0-3.38-.74-3.43-3.43-.07-4-.17-7.91-.23-11.87,0-2.08.67-2.82,2.75-2.86q8.15-.18,16.3-.31c5.59-.09,11.18-.16,16.78-.24,4.51-.06,9-.16,13.54-.18,2.08,0,2.53.5,2.58,2.68q.12,5.4.18,10.79c0,1.44-.08,2.87-.12,4.31a1.33,1.33,0,0,1-1.46,1.4c-1.12,0-2.23-.06-3.35-.06H232.12v1.76q-.13,18.76-.28,37.53c0,3.19-.15,6.39-.2,9.58,0,2.65-.88,3.7-3.49,3.86-3.07.19-6.14.24-9.22.29a29.07,29.07,0,0,1-4.17-.23c-1.78-.24-2.33-.86-2.42-2.68-.21-4.5-.43-9-.54-13.52-.2-8.59-.31-17.18-.5-25.77C211.22,279.6,211,276,210.9,272.14Z"/><path class="cls-2" d="M46.32,272.61c0,6.34,0,12.53,0,18.73,0,7.39-.15,14.79-.24,22.18,0,2.84-.12,5.67-.2,8.51,0,1.62-.76,2.69-2.34,2.83-3.37.29-6.76.43-10.15.52a45.47,45.47,0,0,1-4.66-.25,2,2,0,0,1-1.94-1.92c-.2-2.86-.42-5.73-.5-8.6-.21-7.27-.34-14.54-.5-21.81q-.21-8.93-.44-17.85c0-.83-.18-1.66-.28-2.59-1.69-.07-3.35-.17-5-.21s-3.12,0-4.68,0c-2.34,0-3.14-.81-3.2-3.19,0-1.63,0-3.27-.06-4.91,0-2.4-.15-4.79-.19-7.19,0-2,.7-2.81,2.78-2.86q6.41-.16,12.82-.26c6.76-.11,13.51-.19,20.26-.29,4.6-.06,9.19-.15,13.79-.18,1.72,0,2.26.52,2.29,2.2.1,4.83.19,9.67.22,14.5,0,2.19-.42,2.56-2.63,2.54-3.48,0-7-.1-10.43-.1C49.52,272.39,48,272.53,46.32,272.61Z"/><path class="cls-2" d="M420.65,290.88c-.22,4.17-.45,8.34-.64,12.51-.15,3.31-.33,6.62-.36,9.94,0,2.35.08,4.71.28,7.05.22,2.51-.55,3.53-3.07,3.55-3.67,0-7.34,0-11,0-1.81,0-2.25-.46-2.25-2.28q0-28.56,0-57.11c0-.79,0-1.59-.12-2.39-.18-2,.6-2.88,2.58-2.86,3.75,0,7.51.13,11.26.19.92,0,1.84,0,2.76,0,1.86,0,2.2.34,2.88,2.07q4.56,11.64,9.19,23.24c.13.32.32.62.56,1.08.17-.32.29-.5.38-.7q5.43-11.6,10.85-23.2a5.14,5.14,0,0,1,5-3.26c3.3-.07,6.61-.4,9.91-.63,1.89-.13,2.77.52,2.74,2.43-.08,4.55-.29,9.1-.44,13.65-.19,6.11-.43,12.22-.56,18.33-.19,8.55-.3,17.1-.45,25.65,0,.28,0,.55-.06.92-.69.09-1.35.23-2,.26-3.6.12-7.19.24-10.79.32-1.66,0-1.88-.16-2.18-1.84a11.09,11.09,0,0,1-.17-1.9q.11-10.8.22-21.58c0-1.71,0-3.42,0-5.13l-.38-.07a8.94,8.94,0,0,0-.51.84q-4.44,8.82-8.86,17.65c-.52,1-1.07,2.06-1.68,3-1.06,1.69-2.07,1.7-3-.06-3-6-5.94-12-8.9-18-.27-.56-.51-1.15-.77-1.73Z"/><path class="cls-2" d="M504.47,303.94c0-5.92,0-11.84,0-17.75q0-9.22-.13-18.45c0-1.72-.2-3.43-.33-5.14s.3-2.49,2.14-2.57c5.1-.24,10.23-.72,15.31-.45,6,.33,11.89,2,16.53,6.13a30.71,30.71,0,0,1,8.15,13c3.24,9.3,3.13,18.56-1.31,27.45-3.38,6.79-9.14,11.19-15.85,14.4a42.5,42.5,0,0,1-14.85,3.88c-2.26.19-4.53.37-6.8.44s-2.88-.52-2.9-2.92c0-5.48,0-11,0-16.43v-1.56Zm15.86.6a5.33,5.33,0,0,0,.65,0,12.46,12.46,0,0,0,10.54-8.72,21.38,21.38,0,0,0-.31-12.15,8.56,8.56,0,0,0-9.31-5.55c-1.13.21-1.53.65-1.51,1.81.05,3,0,5.92,0,8.87C520.32,294.05,520.33,299.24,520.33,304.54Z"/><path class="cls-2" d="M635.24,260.06c2.65.49,5.34.84,7.94,1.51,5.5,1.42,8.57,5.25,9.59,10.67a63.89,63.89,0,0,1,.58,8,1.68,1.68,0,0,1-1.73,1.9c-3.74.22-7.49.4-11.24.49-.48,0-1.08-.56-1.43-1a4.91,4.91,0,0,1-.56-1.56c-1.17-3.95-5-5-8-2.16a11.87,11.87,0,0,0-3.44,6.31,32.63,32.63,0,0,0,.15,12.38,20.43,20.43,0,0,0,1.33,4.81c.93,2.12,2.52,3.61,5.08,3.5a5,5,0,0,0,4.31-3,14.26,14.26,0,0,0,1.22-4.08c.26-1.44.7-2.16,2.16-2.23,3.75-.16,7.51-.23,11.26-.33a1.69,1.69,0,0,1,1.91,1.57c2,11.71-2.9,23.34-16.44,25.73-7.58,1.34-13.95-.69-19.27-6.19-2.88-3-4.32-6.69-5.33-10.58-2.7-10.4-2.59-20.71,1.29-30.83a24.15,24.15,0,0,1,6.46-9.68,19.49,19.49,0,0,1,14.13-4.85Z"/><path class="cls-2" d="M466.67,262.17c2.81-.17,5.48-.34,8.14-.47q10.89-.54,21.79-1c.4,0,.8,0,1.2,0,1,0,1.55.49,1.5,1.57-.2,4.15-.35,8.3-.57,12.45-.07,1.27-.91,1.75-2.41,1.69-4-.16-8.06-.26-12.09-.4-.69,0-1.21.1-1.21.92,0,3.58,0,7.17,0,10.92h13.79c0,2.82.06,5.48-.06,8.14,0,.36-.86.91-1.39,1a24.74,24.74,0,0,1-3.23.1l-8.9.28v9.74c1.66-.13,3.28-.23,4.89-.38,2.82-.27,5.63-.61,8.46-.84,1.88-.16,2.39.35,2.4,2.22q0,6.06,0,12.12c0,1.62-.35,2-2,2.06s-3.43,0-5.15.05q-8.58.09-17.15.2c-1.72,0-3.43.17-5.15.2s-2.1-.3-2.25-2c-.17-1.91-.11-3.84-.13-5.75q-.15-12.9-.29-25.79t-.24-25.55Z"/><path class="cls-2" d="M590.89,262.23a27,27,0,0,1,8.6,7,31.73,31.73,0,0,1,6.94,18.06c.7,9.32-1.59,17.85-7.5,25.21a27.23,27.23,0,0,1-15.85,9.85,22.29,22.29,0,0,1-9.78-.45C579.14,302.1,585,282.27,590.89,262.23Z"/><path class="cls-2" d="M584.64,260.15C578.79,280,573,299.82,567.09,319.74a23.68,23.68,0,0,1-6.51-4.91c-5.22-5.55-7.75-12.24-8.47-19.75a33.93,33.93,0,0,1,4.37-21.1c4-6.78,9.72-11.68,17.48-13.84A21.3,21.3,0,0,1,584.64,260.15Z"/><path class="cls-2" d="M476,258.58c3.58-4.72,7.12-9.4,10.68-14.07a1.44,1.44,0,0,1,2.3-.26c1.42,1.22,2.83,2.47,4.14,3.81a1.52,1.52,0,0,1,.15,1.47,11.43,11.43,0,0,1-2.56,2.8c-3.59,2.45-7.29,4.76-10.95,7.12C478.16,260.47,477.33,260.29,476,258.58Z"/><path class="cls-1" d="M116.84,288c-.19,6.92-2,12.67-6.56,17.29-3.51,3.53-8.34,3.56-12,.19s-5.56-7.94-6.64-12.75a26.59,26.59,0,0,1,2.25-18.81,16.71,16.71,0,0,1,3-4.14c4.22-4.09,9.89-3.61,14,1,3.22,3.54,4.64,7.85,5.38,12.44C116.59,285,116.71,286.77,116.84,288Zm-13.24-5.78a14,14,0,0,0,.55,10A16.12,16.12,0,0,0,103.6,282.23Z"/><path class="cls-1" d="M289,267c3.89.18,6.54,2.31,8.73,5.16,2.44,3.14,3.53,6.85,4.2,10.69,1,5.84.76,11.57-2,16.9a25.87,25.87,0,0,1-4.1,5.7c-3.28,3.43-8.17,3.36-11.73.18s-5.24-7.19-6.44-11.55a27.15,27.15,0,0,1,2-20.32c1.67-3.2,4-5.67,7.67-6.55A16.05,16.05,0,0,1,289,267Zm.27,15.25a14.56,14.56,0,0,0,.55,10.07A15.87,15.87,0,0,0,289.29,282.22Z"/><path class="cls-1" d="M520.33,304.54c0-5.3,0-10.49,0-15.69,0-3,.1-5.91,0-8.87,0-1.16.38-1.6,1.51-1.81a8.56,8.56,0,0,1,9.31,5.55,21.38,21.38,0,0,1,.31,12.15A12.46,12.46,0,0,1,521,304.59,5.33,5.33,0,0,1,520.33,304.54Z"/><path class="cls-2" d="M103.6,282.23a16.12,16.12,0,0,1,.55,10A14,14,0,0,1,103.6,282.23Z"/><path class="cls-2" d="M289.29,282.22a15.87,15.87,0,0,1,.55,10.07A14.56,14.56,0,0,1,289.29,282.22Z"/></g></g></svg>